<svg width="1345" height="347" viewBox="0 0 1345 347" fill="none" xmlns="http://www.w3.org/2000/svg">
<path d="M53.8317 158.575C27.4128 80.7511 85.2771 0 167.463 0H576.658C618.079 0 651.658 33.5786 651.658 75V271.363C651.658 312.784 618.079 346.363 576.658 346.363H189.238C146.398 346.363 108.317 319.075 94.5458 278.508L53.8317 158.575Z" fill="#FF7755"/>
<path d="M659.511 168.962C624.036 89.583 682.122 0 769.068 0H1366C1407.42 0 1441 33.5786 1441 75V271C1441 312.421 1407.42 346 1366 346H803.472C764.028 346 728.269 322.813 712.175 286.802L659.511 168.962Z" fill="#FF7755"/>
</svg>
